<svg xmlns="http://www.w3.org/2000/svg" width="655.8577880859375" height="649.3551635742188" viewBox="-234.6455078125 -218.2491912841797 655.8577880859375 649.3551635742188"><title>Neo4j Graph Visualization</title><desc>Created using Neo4j (http://www.neo4j.com/)</desc><g class="layer relationships"><g class="relationship" transform="translate(236.3505274329905 132.08814096836508) rotate(182.00635501496896)"><path class="outline" fill="#A5ABB6" stroke="none" d="M 25 0.5 L 62.3101224080315 0.5 L 62.3101224080315 -0.5 L 25 -0.5 Z M 96.7554349080315 0.5 L 134.065557316063 0.5 L 134.065557316063 3.5 L 141.065557316063 0 L 134.065557316063 -3.5 L 134.065557316063 -0.5 L 96.7554349080315 -0.5 Z"/><text text-anchor="middle" pointer-events="none" font-size="8px" fill="#000000" x="79.5327786580315" y="3" transform="rotate(180 79.5327786580315 0)" font-family="sans-serif">ORIGIN</text></g><g class="relationship" transform="translate(236.3505274329905 132.08814096836508) rotate(355.0759182410043)"><path class="outline" fill="#A5ABB6" stroke="none" d="M 25 0.5 L 45.12579229242377 0.5 L 45.12579229242377 -0.5 L 25 -0.5 Z M 104.31329229242377 0.5 L 124.43908458484754 0.5 L 124.43908458484754 3.5 L 131.43908458484754 0 L 124.43908458484754 -3.5 L 124.43908458484754 -0.5 L 104.31329229242377 -0.5 Z"/><text text-anchor="middle" pointer-events="none" font-size="8px" fill="#000000" x="74.71954229242377" y="3" font-family="sans-serif">DESTINATION</text></g><g class="relationship" transform="translate(171.8761793715107 296.63768446955964) rotate(239.21679162605358)"><path class="outline" fill="#A5ABB6" stroke="none" d="M 25 0.5 L 78.42854150102883 0.5 L 78.42854150102883 -0.5 L 25 -0.5 Z M 112.87385400102883 0.5 L 166.30239550205766 0.5 L 166.30239550205766 3.5 L 173.30239550205766 0 L 166.30239550205766 -3.5 L 166.30239550205766 -0.5 L 112.87385400102883 -0.5 Z"/><text text-anchor="middle" pointer-events="none" font-size="8px" fill="#000000" x="95.65119775102883" y="3" transform="rotate(180 95.65119775102883 0)" font-family="sans-serif">ORIGIN</text></g><g class="relationship" transform="translate(171.8761793715107 296.63768446955964) rotate(488.2745449335901)"><path class="outline" fill="#A5ABB6" stroke="none" d="M 25 0.5 L 34.07907431284437 0.5 L 34.07907431284437 -0.5 L 25 -0.5 Z M 93.26657431284437 0.5 L 102.34564862568874 0.5 L 102.34564862568874 3.5 L 109.34564862568874 0 L 102.34564862568874 -3.5 L 102.34564862568874 -0.5 L 93.26657431284437 -0.5 Z"/><text text-anchor="middle" pointer-events="none" font-size="8px" fill="#000000" x="63.67282431284437" y="3" transform="rotate(180 63.67282431284437 0)" font-family="sans-serif">DESTINATION</text></g><g class="relationship" transform="translate(78.9029580902233 250.91398117134574) rotate(266.09126575262746)"><path class="outline" fill="#A5ABB6" stroke="none" d="M 25 0.5 L 41.742570499363076 0.5 L 41.742570499363076 -0.5 L 25 -0.5 Z M 76.18788299936307 0.5 L 92.93045349872615 0.5 L 92.93045349872615 3.5 L 99.93045349872615 0 L 92.93045349872615 -3.5 L 92.93045349872615 -0.5 L 76.18788299936307 -0.5 Z"/><text text-anchor="middle" pointer-events="none" font-size="8px" fill="#000000" x="58.965226749363076" y="3" transform="rotate(180 58.965226749363076 0)" font-family="sans-serif">ORIGIN</text></g><g class="relationship" transform="translate(78.9029580902233 250.91398117134574) rotate(446.30818646717034)"><path class="outline" fill="#A5ABB6" stroke="none" d="M 25 0.5 L 42.65943874792346 0.5 L 42.65943874792346 -0.5 L 25 -0.5 Z M 101.84693874792346 0.5 L 119.50637749584692 0.5 L 119.50637749584692 3.5 L 126.50637749584692 0 L 119.50637749584692 -3.5 L 119.50637749584692 -0.5 L 101.84693874792346 -0.5 Z"/><text text-anchor="middle" pointer-events="none" font-size="8px" fill="#000000" x="72.25318874792346" y="3" font-family="sans-serif">DESTINATION</text></g><g class="relationship" transform="translate(223.34800506560913 196.4060409946033) rotate(204.63120486710835)"><path class="outline" fill="#A5ABB6" stroke="none" d="M 25 0.5 L 63.4135763648283 0.5 L 63.4135763648283 -0.5 L 25 -0.5 Z M 97.8588888648283 0.5 L 136.2724652296566 0.5 L 136.2724652296566 3.5 L 143.2724652296566 0 L 136.2724652296566 -3.5 L 136.2724652296566 -0.5 L 97.8588888648283 -0.5 Z"/><text text-anchor="middle" pointer-events="none" font-size="8px" fill="#000000" x="80.6362326148283" y="3" transform="rotate(180 80.6362326148283 0)" font-family="sans-serif">ORIGIN</text></g><g class="relationship" transform="translate(223.34800506560913 196.4060409946033) rotate(387.2124605417891)"><path class="outline" fill="#A5ABB6" stroke="none" d="M 25 0.5 L 44.37746609821207 0.5 L 44.37746609821207 -0.5 L 25 -0.5 Z M 103.56496609821207 0.5 L 122.94243219642414 0.5 L 122.94243219642414 3.5 L 129.94243219642414 0 L 122.94243219642414 -3.5 L 122.94243219642414 -0.5 L 103.56496609821207 -0.5 Z"/><text text-anchor="middle" pointer-events="none" font-size="8px" fill="#000000" x="73.97121609821207" y="3" font-family="sans-serif">DESTINATION</text></g><g class="relationship" transform="translate(112.06786911107321 300.55660136328515) rotate(256.54987706511315)"><path class="outline" fill="#A5ABB6" stroke="none" d="M 25 0.5 L 68.87602371500994 0.5 L 68.87602371500994 -0.5 L 25 -0.5 Z M 103.32133621500994 0.5 L 147.19735993001987 0.5 L 147.19735993001987 3.5 L 154.19735993001987 0 L 147.19735993001987 -3.5 L 147.19735993001987 -0.5 L 103.32133621500994 -0.5 Z"/><text text-anchor="middle" pointer-events="none" font-size="8px" fill="#000000" x="86.09867996500994" y="3" transform="rotate(180 86.09867996500994 0)" font-family="sans-serif">ORIGIN</text></g><g class="relationship" transform="translate(112.06786911107321 300.55660136328515) rotate(462.9812187314942)"><path class="outline" fill="#A5ABB6" stroke="none" d="M 25 0.5 L 26.938351169553634 0.5 L 26.938351169553634 -0.5 L 25 -0.5 Z M 70.27428866955364 0.5 L 72.21263983910727 0.5 L 72.21263983910727 3.5 L 79.21263983910727 0 L 72.21263983910727 -3.5 L 72.21263983910727 -0.5 L 70.27428866955364 -0.5 Z"/><text text-anchor="middle" pointer-events="none" font-size="8px" fill="#000000" x="48.606319919553634" y="3" transform="rotate(180 48.606319919553634 0)" font-family="sans-serif">DESTIN…</text></g><g class="relationship" transform="translate(100.11831182834689 -35.32352400235213) rotate(460.4249741832296)"><path class="outline" fill="#A5ABB6" stroke="none" d="M 25 0.5 L 61.43232761101709 0.5 L 61.43232761101709 -0.5 L 25 -0.5 Z M 95.87764011101709 0.5 L 132.30996772203417 0.5 L 132.30996772203417 3.5 L 139.30996772203417 0 L 132.30996772203417 -3.5 L 132.30996772203417 -0.5 L 95.87764011101709 -0.5 Z"/><text text-anchor="middle" pointer-events="none" font-size="8px" fill="#000000" x="78.65498386101709" y="3" transform="rotate(180 78.65498386101709 0)" font-family="sans-serif">ORIGIN</text></g><g class="relationship" transform="translate(100.11831182834689 -35.32352400235213) rotate(283.73299853601486)"><path class="outline" fill="#A5ABB6" stroke="none" d="M 25 0.5 L 46.13400459276036 0.5 L 46.13400459276036 -0.5 L 25 -0.5 Z M 105.32150459276036 0.5 L 126.45550918552073 0.5 L 126.45550918552073 3.5 L 133.45550918552073 0 L 126.45550918552073 -3.5 L 126.45550918552073 -0.5 L 105.32150459276036 -0.5 Z"/><text text-anchor="middle" pointer-events="none" font-size="8px" fill="#000000" x="75.72775459276036" y="3" font-family="sans-serif">DESTINATION</text></g><g class="relationship" transform="translate(221.36256487766937 6.727775747383823) rotate(501.62695017527955)"><path class="outline" fill="#A5ABB6" stroke="none" d="M 25 0.5 L 75.5646989785192 0.5 L 75.5646989785192 -0.5 L 25 -0.5 Z M 110.0100114785192 0.5 L 160.5747104570384 0.5 L 160.5747104570384 3.5 L 167.5747104570384 0 L 160.5747104570384 -3.5 L 160.5747104570384 -0.5 L 110.0100114785192 -0.5 Z"/><text text-anchor="middle" pointer-events="none" font-size="8px" fill="#000000" x="92.7873552285192" y="3" transform="rotate(180 92.7873552285192 0)" font-family="sans-serif">ORIGIN</text></g><g class="relationship" transform="translate(221.36256487766937 6.727775747383823) rotate(322.38848080795805)"><path class="outline" fill="#A5ABB6" stroke="none" d="M 25 0.5 L 26.486220207518265 0.5 L 26.486220207518265 -0.5 L 25 -0.5 Z M 69.82215770751827 0.5 L 71.30837791503653 0.5 L 71.30837791503653 3.5 L 78.30837791503653 0 L 71.30837791503653 -3.5 L 71.30837791503653 -0.5 L 69.82215770751827 -0.5 Z"/><text text-anchor="middle" pointer-events="none" font-size="8px" fill="#000000" x="48.154188957518265" y="3" font-family="sans-serif">DESTIN…</text></g><g class="relationship" transform="translate(-35.19312938027967 50.47530609576475) rotate(395.6756434261192)"><path class="outline" fill="#A5ABB6" stroke="none" d="M 25 0.5 L 44.26306916959035 0.5 L 44.26306916959035 -0.5 L 25 -0.5 Z M 78.70838166959035 0.5 L 97.9714508391807 0.5 L 97.9714508391807 3.5 L 104.9714508391807 0 L 97.9714508391807 -3.5 L 97.9714508391807 -0.5 L 78.70838166959035 -0.5 Z"/><text text-anchor="middle" pointer-events="none" font-size="8px" fill="#000000" x="61.48572541959035" y="3" font-family="sans-serif">ORIGIN</text></g><g class="relationship" transform="translate(-35.19312938027967 50.47530609576475) rotate(214.24971702445572)"><path class="outline" fill="#A5ABB6" stroke="none" d="M 25 0.5 L 47.01217022736445 0.5 L 47.01217022736445 -0.5 L 25 -0.5 Z M 106.19967022736445 0.5 L 128.2118404547289 0.5 L 128.2118404547289 3.5 L 135.2118404547289 0 L 128.2118404547289 -3.5 L 128.2118404547289 -0.5 L 106.19967022736445 -0.5 Z"/><text text-anchor="middle" pointer-events="none" font-size="8px" fill="#000000" x="76.60592022736445" y="3" transform="rotate(180 76.60592022736445 0)" font-family="sans-serif">DESTINATION</text></g><g class="relationship" transform="translate(36.77163434934678 -32.687848868548166) rotate(438.05976616401193)"><path class="outline" fill="#A5ABB6" stroke="none" d="M 25 0.5 L 60.51601688422822 0.5 L 60.51601688422822 -0.5 L 25 -0.5 Z M 94.96132938422822 0.5 L 130.47734626845644 0.5 L 130.47734626845644 3.5 L 137.47734626845644 0 L 130.47734626845644 -3.5 L 130.47734626845644 -0.5 L 94.96132938422822 -0.5 Z"/><text text-anchor="middle" pointer-events="none" font-size="8px" fill="#000000" x="77.73867313422822" y="3" font-family="sans-serif">ORIGIN</text></g><g class="relationship" transform="translate(36.77163434934678 -32.687848868548166) rotate(254.08191739213447)"><path class="outline" fill="#A5ABB6" stroke="none" d="M 25 0.5 L 45.12887025021425 0.5 L 45.12887025021425 -0.5 L 25 -0.5 Z M 104.31637025021425 0.5 L 124.4452405004285 0.5 L 124.4452405004285 3.5 L 131.4452405004285 0 L 124.4452405004285 -3.5 L 124.4452405004285 -0.5 L 104.31637025021425 -0.5 Z"/><text text-anchor="middle" pointer-events="none" font-size="8px" fill="#000000" x="74.72262025021425" y="3" transform="rotate(180 74.72262025021425 0)" font-family="sans-serif">DESTINATION</text></g><g class="relationship" transform="translate(138.71498926666317 247.11522327970093) rotate(240.51450872995986)"><path class="outline" fill="#A5ABB6" stroke="none" d="M 25 0.5 L 48.68792439655728 0.5 L 48.68792439655728 -0.5 L 25 -0.5 Z M 83.13323689655728 0.5 L 106.82116129311456 0.5 L 106.82116129311456 3.5 L 113.82116129311456 0 L 106.82116129311456 -3.5 L 106.82116129311456 -0.5 L 83.13323689655728 -0.5 Z"/><text text-anchor="middle" pointer-events="none" font-size="8px" fill="#000000" x="65.91058064655728" y="3" transform="rotate(180 65.91058064655728 0)" font-family="sans-serif">ORIGIN</text></g><g class="relationship" transform="translate(138.71498926666317 247.11522327970093) rotate(467.8986389951883)"><path class="outline" fill="#A5ABB6" stroke="none" d="M 25 0.5 L 48.34301757277983 0.5 L 48.34301757277983 -0.5 L 25 -0.5 Z M 107.53051757277983 0.5 L 130.87353514555966 0.5 L 130.87353514555966 3.5 L 137.87353514555966 0 L 130.87353514555966 -3.5 L 130.87353514555966 -0.5 L 107.53051757277983 -0.5 Z"/><text text-anchor="middle" pointer-events="none" font-size="8px" fill="#000000" x="77.93676757277983" y="3" transform="rotate(180 77.93676757277983 0)" font-family="sans-serif">DESTINATION</text></g><g class="relationship" transform="translate(168.06943371459693 -20.55565204425216) rotate(483.6349582228224)"><path class="outline" fill="#A5ABB6" stroke="none" d="M 25 0.5 L 67.45456014435294 0.5 L 67.45456014435294 -0.5 L 25 -0.5 Z M 101.89987264435294 0.5 L 144.35443278870588 0.5 L 144.35443278870588 3.5 L 151.35443278870588 0 L 144.35443278870588 -3.5 L 144.35443278870588 -0.5 L 101.89987264435294 -0.5 Z"/><text text-anchor="middle" pointer-events="none" font-size="8px" fill="#000000" x="84.67721639435294" y="3" transform="rotate(180 84.67721639435294 0)" font-family="sans-serif">ORIGIN</text></g><g class="relationship" transform="translate(168.06943371459693 -20.55565204425216) rotate(345.17499987276256)"><path class="outline" fill="#A5ABB6" stroke="none" d="M 25 0.5 L 36.79812966578011 0.5 L 36.79812966578011 -0.5 L 25 -0.5 Z M 95.98562966578011 0.5 L 107.78375933156022 0.5 L 107.78375933156022 3.5 L 114.78375933156022 0 L 107.78375933156022 -3.5 L 107.78375933156022 -0.5 L 95.98562966578011 -0.5 Z"/><text text-anchor="middle" pointer-events="none" font-size="8px" fill="#000000" x="66.39187966578011" y="3" font-family="sans-serif">DESTINATION</text></g><g class="relationship" transform="translate(-33.304778020540255 -9.657303905121543) rotate(412.6627969977002)"><path class="outline" fill="#A5ABB6" stroke="none" d="M 25 0.5 L 64.76022628859242 0.5 L 64.76022628859242 -0.5 L 25 -0.5 Z M 99.20553878859242 0.5 L 138.96576507718484 0.5 L 138.96576507718484 3.5 L 145.96576507718484 0 L 138.96576507718484 -3.5 L 138.96576507718484 -0.5 L 99.20553878859242 -0.5 Z"/><text text-anchor="middle" pointer-events="none" font-size="8px" fill="#000000" x="81.98288253859242" y="3" font-family="sans-serif">ORIGIN</text></g><g class="relationship" transform="translate(-33.304778020540255 -9.657303905121543) rotate(192.60449349671188)"><path class="outline" fill="#A5ABB6" stroke="none" d="M 25 0.5 L 35.723910498143255 0.5 L 35.723910498143255 -0.5 L 25 -0.5 Z M 94.91141049814325 0.5 L 105.63532099628651 0.5 L 105.63532099628651 3.5 L 112.63532099628651 0 L 105.63532099628651 -3.5 L 105.63532099628651 -0.5 L 94.91141049814325 -0.5 Z"/><text text-anchor="middle" pointer-events="none" font-size="8px" fill="#000000" x="65.31766049814325" y="3" transform="rotate(180 65.31766049814325 0)" font-family="sans-serif">DESTINATION</text></g><g class="relationship" transform="translate(52.36633875070062 304.41707155790226) rotate(275.77623070283136)"><path class="outline" fill="#A5ABB6" stroke="none" d="M 25 0.5 L 68.80337952805067 0.5 L 68.80337952805067 -0.5 L 25 -0.5 Z M 103.24869202805067 0.5 L 147.05207155610134 0.5 L 147.05207155610134 3.5 L 154.05207155610134 0 L 147.05207155610134 -3.5 L 147.05207155610134 -0.5 L 103.24869202805067 -0.5 Z"/><text text-anchor="middle" pointer-events="none" font-size="8px" fill="#000000" x="86.02603577805067" y="3" font-family="sans-serif">ORIGIN</text></g><g class="relationship" transform="translate(52.36633875070062 304.41707155790226) rotate(429.6196322668819)"><path class="outline" fill="#A5ABB6" stroke="none" d="M 25 0.5 L 26.938251875221788 0.5 L 26.938251875221788 -0.5 L 25 -0.5 Z M 70.2741893752218 0.5 L 72.21244125044358 0.5 L 72.21244125044358 3.5 L 79.21244125044358 0 L 72.21244125044358 -3.5 L 72.21244125044358 -0.5 L 70.2741893752218 -0.5 Z"/><text text-anchor="middle" pointer-events="none" font-size="8px" fill="#000000" x="48.60622062522179" y="3" font-family="sans-serif">DESTIN…</text></g><g class="relationship" transform="translate(-70.97075666481099 213.90002143829892) rotate(328.205706818242)"><path class="outline" fill="#A5ABB6" stroke="none" d="M 25 0.5 L 62.43419752800371 0.5 L 62.43419752800371 -0.5 L 25 -0.5 Z M 96.87951002800371 0.5 L 134.31370755600742 0.5 L 134.31370755600742 3.5 L 141.31370755600742 0 L 134.31370755600742 -3.5 L 134.31370755600742 -0.5 L 96.87951002800371 -0.5 Z"/><text text-anchor="middle" pointer-events="none" font-size="8px" fill="#000000" x="79.65685377800371" y="3" font-family="sans-serif">ORIGIN</text></g><g class="relationship" transform="translate(-70.97075666481099 213.90002143829892) rotate(531.1677366846229)"><path class="outline" fill="#A5ABB6" stroke="none" d="M 25 0.5 L 35.051690710132775 0.5 L 35.051690710132775 -0.5 L 25 -0.5 Z M 94.23919071013277 0.5 L 104.29088142026555 0.5 L 104.29088142026555 3.5 L 111.29088142026555 0 L 104.29088142026555 -3.5 L 104.29088142026555 -0.5 L 94.23919071013277 -0.5 Z"/><text text-anchor="middle" pointer-events="none" font-size="8px" fill="#000000" x="64.64544071013277" y="3" transform="rotate(180 64.64544071013277 0)" font-family="sans-serif">DESTINATION</text></g><g class="relationship" transform="translate(-91.99734559206492 157.88447462063777) rotate(348.98433720298726)"><path class="outline" fill="#A5ABB6" stroke="none" d="M 25 0.5 L 61.993450288952644 0.5 L 61.993450288952644 -0.5 L 25 -0.5 Z M 96.43876278895264 0.5 L 133.4322130779053 0.5 L 133.4322130779053 3.5 L 140.4322130779053 0 L 133.4322130779053 -3.5 L 133.4322130779053 -0.5 L 96.43876278895264 -0.5 Z"/><text text-anchor="middle" pointer-events="none" font-size="8px" fill="#000000" x="79.21610653895264" y="3" font-family="sans-serif">ORIGIN</text></g><g class="relationship" transform="translate(-91.99734559206492 157.88447462063777) rotate(505.9012558551937)"><path class="outline" fill="#A5ABB6" stroke="none" d="M 25 0.5 L 35.52835073090944 0.5 L 35.52835073090944 -0.5 L 25 -0.5 Z M 94.71585073090944 0.5 L 105.24420146181888 0.5 L 105.24420146181888 3.5 L 112.24420146181888 0 L 105.24420146181888 -3.5 L 105.24420146181888 -0.5 L 94.71585073090944 -0.5 Z"/><text text-anchor="middle" pointer-events="none" font-size="8px" fill="#000000" x="65.12210073090944" y="3" transform="rotate(180 65.12210073090944 0)" font-family="sans-serif">DESTINATION</text></g><g class="relationship" transform="translate(19.144609320268763 254.92927808585006) rotate(291.7169392601731)"><path class="outline" fill="#A5ABB6" stroke="none" d="M 25 0.5 L 48.51950434246051 0.5 L 48.51950434246051 -0.5 L 25 -0.5 Z M 82.96481684246051 0.5 L 106.48432118492101 0.5 L 106.48432118492101 3.5 L 113.48432118492101 0 L 106.48432118492101 -3.5 L 106.48432118492101 -0.5 L 82.96481684246051 -0.5 Z"/><text text-anchor="middle" pointer-events="none" font-size="8px" fill="#000000" x="65.74216059246051" y="3" font-family="sans-serif">ORIGIN</text></g><g class="relationship" transform="translate(19.144609320268763 254.92927808585006) rotate(424.7179156017895)"><path class="outline" fill="#A5ABB6" stroke="none" d="M 25 0.5 L 48.28982261622967 0.5 L 48.28982261622967 -0.5 L 25 -0.5 Z M 107.47732261622967 0.5 L 130.76714523245934 0.5 L 130.76714523245934 3.5 L 137.76714523245934 0 L 130.76714523245934 -3.5 L 130.76714523245934 -0.5 L 107.47732261622967 -0.5 Z"/><text text-anchor="middle" pointer-events="none" font-size="8px" fill="#000000" x="77.88357261622967" y="3" font-family="sans-serif">DESTINATION</text></g><g class="relationship" transform="translate(-85.76673392953154 19.199065884364465) rotate(394.4385824345412)"><path class="outline" fill="#A5ABB6" stroke="none" d="M 25 0.5 L 73.94648853478198 0.5 L 73.94648853478198 -0.5 L 25 -0.5 Z M 108.39180103478198 0.5 L 157.33828956956395 0.5 L 157.33828956956395 3.5 L 164.33828956956395 0 L 157.33828956956395 -3.5 L 157.33828956956395 -0.5 L 108.39180103478198 -0.5 Z"/><text text-anchor="middle" pointer-events="none" font-size="8px" fill="#000000" x="91.16914478478198" y="3" font-family="sans-serif">ORIGIN</text></g><g class="relationship" transform="translate(-85.76673392953154 19.199065884364465) rotate(215.73294339886326)"><path class="outline" fill="#A5ABB6" stroke="none" d="M 25 0.5 L 25.25181579979826 0.5 L 25.25181579979826 -0.5 L 25 -0.5 Z M 68.58775329979827 0.5 L 68.83956909959652 0.5 L 68.83956909959652 3.5 L 75.83956909959652 0 L 68.83956909959652 -3.5 L 68.83956909959652 -0.5 L 68.58775329979827 -0.5 Z"/><text text-anchor="middle" pointer-events="none" font-size="8px" fill="#000000" x="46.91978454979826" y="3" transform="rotate(180 46.91978454979826 0)" font-family="sans-serif">DESTIN…</text></g><g class="relationship" transform="translate(-93.71022598598891 78.47505324809234) rotate(376.24007490657766)"><path class="outline" fill="#A5ABB6" stroke="none" d="M 25 0.5 L 64.7357808124576 0.5 L 64.7357808124576 -0.5 L 25 -0.5 Z M 99.1810933124576 0.5 L 138.9168741249152 0.5 L 138.9168741249152 3.5 L 145.9168741249152 0 L 138.9168741249152 -3.5 L 138.9168741249152 -0.5 L 99.1810933124576 -0.5 Z"/><text text-anchor="middle" pointer-events="none" font-size="8px" fill="#000000" x="81.9584370624576" y="3" font-family="sans-serif">ORIGIN</text></g><g class="relationship" transform="translate(-93.71022598598891 78.47505324809234) rotate(237.9742685957532)"><path class="outline" fill="#A5ABB6" stroke="none" d="M 25 0.5 L 36.59586376067577 0.5 L 36.59586376067577 -0.5 L 25 -0.5 Z M 95.78336376067577 0.5 L 107.37922752135154 0.5 L 107.37922752135154 3.5 L 114.37922752135154 0 L 107.37922752135154 -3.5 L 107.37922752135154 -0.5 L 95.78336376067577 -0.5 Z"/><text text-anchor="middle" pointer-events="none" font-size="8px" fill="#000000" x="66.18961376067577" y="3" transform="rotate(180 66.18961376067577 0)" font-family="sans-serif">DESTINATION</text></g><g class="relationship" transform="translate(-7.452391139120617 308.301305973344) rotate(293.15270860753094)"><path class="outline" fill="#A5ABB6" stroke="none" d="M 25 0.5 L 78.26323840353298 0.5 L 78.26323840353298 -0.5 L 25 -0.5 Z M 112.70855090353298 0.5 L 165.97178930706596 0.5 L 165.97178930706596 3.5 L 172.97178930706596 0 L 165.97178930706596 -3.5 L 165.97178930706596 -0.5 L 112.70855090353298 -0.5 Z"/><text text-anchor="middle" pointer-events="none" font-size="8px" fill="#000000" x="95.48589465353298" y="3" font-family="sans-serif">ORIGIN</text></g><g class="relationship" transform="translate(-7.452391139120617 308.301305973344) rotate(404.3042888840818)"><path class="outline" fill="#A5ABB6" stroke="none" d="M 25 0.5 L 34.05645295570086 0.5 L 34.05645295570086 -0.5 L 25 -0.5 Z M 93.24395295570086 0.5 L 102.30040591140173 0.5 L 102.30040591140173 3.5 L 109.30040591140173 0 L 102.30040591140173 -3.5 L 102.30040591140173 -0.5 L 93.24395295570086 -0.5 Z"/><text text-anchor="middle" pointer-events="none" font-size="8px" fill="#000000" x="63.65020295570086" y="3" font-family="sans-serif">DESTINATION</text></g><g class="relationship" transform="translate(229.94197360503884 65.86416294390746) rotate(519.2625905199861)"><path class="outline" fill="#A5ABB6" stroke="none" d="M 25 0.5 L 64.58154181517796 0.5 L 64.58154181517796 -0.5 L 25 -0.5 Z M 99.02685431517796 0.5 L 138.6083961303559 0.5 L 138.6083961303559 3.5 L 145.6083961303559 0 L 138.6083961303559 -3.5 L 138.6083961303559 -0.5 L 99.02685431517796 -0.5 Z"/><text text-anchor="middle" pointer-events="none" font-size="8px" fill="#000000" x="81.80419806517796" y="3" transform="rotate(180 81.80419806517796 0)" font-family="sans-serif">ORIGIN</text></g><g class="relationship" transform="translate(229.94197360503884 65.86416294390746) rotate(300.9453082718468)"><path class="outline" fill="#A5ABB6" stroke="none" d="M 25 0.5 L 38.13853137040434 0.5 L 38.13853137040434 -0.5 L 25 -0.5 Z M 97.32603137040434 0.5 L 110.46456274080867 0.5 L 110.46456274080867 3.5 L 117.46456274080867 0 L 110.46456274080867 -3.5 L 110.46456274080867 -0.5 L 97.32603137040434 -0.5 Z"/><text text-anchor="middle" pointer-events="none" font-size="8px" fill="#000000" x="67.73228137040434" y="3" font-family="sans-serif">DESTINATION</text></g><g class="relationship" transform="translate(171.4323461813814 39.191333641214975) rotate(499.24467593657687)"><path class="outline" fill="#A5ABB6" stroke="none" d="M 25 0.5 L 45.9737085242358 0.5 L 45.9737085242358 -0.5 L 25 -0.5 Z M 80.4190210242358 0.5 L 101.3927295484716 0.5 L 101.3927295484716 3.5 L 108.3927295484716 0 L 101.3927295484716 -3.5 L 101.3927295484716 -0.5 L 80.4190210242358 -0.5 Z"/><text text-anchor="middle" pointer-events="none" font-size="8px" fill="#000000" x="63.1963647742358" y="3" transform="rotate(180 63.1963647742358 0)" font-family="sans-serif">ORIGIN</text></g><g class="relationship" transform="translate(171.4323461813814 39.191333641214975) rotate(324.06315113082576)"><path class="outline" fill="#A5ABB6" stroke="none" d="M 25 0.5 L 48.27805619660755 0.5 L 48.27805619660755 -0.5 L 25 -0.5 Z M 107.46555619660755 0.5 L 130.7436123932151 0.5 L 130.7436123932151 3.5 L 137.7436123932151 0 L 130.7436123932151 -3.5 L 130.7436123932151 -0.5 L 107.46555619660755 -0.5 Z"/><text text-anchor="middle" pointer-events="none" font-size="8px" fill="#000000" x="77.87180619660755" y="3" font-family="sans-serif">DESTINATION</text></g></g><g class="layer nodes"><g class="node" transform="translate(70.38677661325637,126.27412853805374)"><circle class="outline" cx="0" cy="0" r="25" fill="#ECB5C9" stroke="#da7298" stroke-width="2px"/><text text-anchor="middle" pointer-events="none" font-family="sans-serif" dy="1.5625" font-size="25" fill="#2A2C34"/><text text-anchor="middle" pointer-events="none" x="0" y="5" font-size="10px" fill="#2A2C34" font-family="sans-serif"> LAX</text></g><g class="node" transform="translate(392.21224337440424,118.66008490863933)"><circle class="outline" cx="0" cy="0" r="25" fill="#ECB5C9" stroke="#da7298" stroke-width="2px"/><text text-anchor="middle" pointer-events="none" font-family="sans-serif" dy="1.5625" font-size="25" fill="#2A2C34"/><text text-anchor="middle" pointer-events="none" x="0" y="5" font-size="10px" fill="#2A2C34" font-family="sans-serif"> LAS</text></g><g class="node" transform="translate(88.65841201333123,402.1059569526953)"><circle class="outline" cx="0" cy="0" r="25" fill="#ECB5C9" stroke="#da7298" stroke-width="2px"/><text text-anchor="middle" pointer-events="none" font-family="sans-serif" dy="1.5625" font-size="25" fill="#2A2C34"/><text text-anchor="middle" pointer-events="none" x="0" y="5" font-size="10px" fill="#2A2C34" font-family="sans-serif"> ABQ</text></g><g class="node" transform="translate(361.1409353242366,267.25987409969736)"><circle class="outline" cx="0" cy="0" r="25" fill="#ECB5C9" stroke="#da7298" stroke-width="2px"/><text text-anchor="middle" pointer-events="none" font-family="sans-serif" dy="1.5625" font-size="25" fill="#2A2C34"/><text text-anchor="middle" pointer-events="none" x="0" y="5" font-size="10px" fill="#2A2C34" font-family="sans-serif"> IAH</text></g><g class="node" transform="translate(137.73527798083188,-189.24919518401515)"><circle class="outline" cx="0" cy="0" r="25" fill="#ECB5C9" stroke="#da7298" stroke-width="2px"/><text text-anchor="middle" pointer-events="none" font-family="sans-serif" dy="1.5625" font-size="25" fill="#2A2C34"/><text text-anchor="middle" pointer-events="none" x="0" y="5" font-size="10px" fill="#2A2C34" font-family="sans-serif"> EWR</text></g><g class="node" transform="translate(303.20004844815253,-56.321785950433764)"><circle class="outline" cx="0" cy="0" r="25" fill="#ECB5C9" stroke="#da7298" stroke-width="2px"/><text text-anchor="middle" pointer-events="none" font-family="sans-serif" dy="1.5625" font-size="25" fill="#2A2C34"/><text text-anchor="middle" pointer-events="none" x="0" y="5" font-size="10px" fill="#2A2C34" font-family="sans-serif"> FAT</text></g><g class="node" transform="translate(-167.6230397140829,-39.69205313623426)"><circle class="outline" cx="0" cy="0" r="25" fill="#ECB5C9" stroke="#da7298" stroke-width="2px"/><text text-anchor="middle" pointer-events="none" font-family="sans-serif" dy="1.5625" font-size="25" fill="#2A2C34"/><text text-anchor="middle" pointer-events="none" x="0" y="5" font-size="10px" fill="#2A2C34" font-family="sans-serif"> SMF</text></g><g class="node" transform="translate(-6.135464656996278,-183.13416530765807)"><circle class="outline" cx="0" cy="0" r="25" fill="#ECB5C9" stroke="#da7298" stroke-width="2px"/><text text-anchor="middle" pointer-events="none" font-family="sans-serif" dy="1.5625" font-size="25" fill="#2A2C34"/><text text-anchor="middle" pointer-events="none" x="0" y="5" font-size="10px" fill="#2A2C34" font-family="sans-serif"> BOS</text></g><g class="node" transform="translate(-205.64551148289092,234.82643472397552)"><circle class="outline" cx="0" cy="0" r="25" fill="#ECB5C9" stroke="#da7298" stroke-width="2px"/><text text-anchor="middle" pointer-events="none" font-family="sans-serif" dy="1.5625" font-size="25" fill="#2A2C34"/><text text-anchor="middle" pointer-events="none" x="0" y="5" font-size="10px" fill="#2A2C34" font-family="sans-serif"> TUS</text></g><g class="node" transform="translate(236.3505274329905,132.08814096836508)"><circle class="outline" cx="0" cy="0" r="25" fill="#4C8EDA" stroke="#2870c2" stroke-width="2px"/><text text-anchor="middle" pointer-events="none" font-family="sans-serif" dy="1.5625" font-size="25" fill="#FFFFFF"/><text text-anchor="middle" pointer-events="none" x="0" y="5" font-size="10px" fill="#FFFFFF" font-family="sans-serif"> 11/29/20…</text></g><g class="node" transform="translate(171.8761793715107,296.63768446955964)"><circle class="outline" cx="0" cy="0" r="25" fill="#4C8EDA" stroke="#2870c2" stroke-width="2px"/><text text-anchor="middle" pointer-events="none" font-family="sans-serif" dy="1.5625" font-size="25" fill="#FFFFFF"/><text text-anchor="middle" pointer-events="none" x="0" y="5" font-size="10px" fill="#FFFFFF" font-family="sans-serif"> 11/3/2015</text></g><g class="node" transform="translate(78.9029580902233,250.91398117134574)"><circle class="outline" cx="0" cy="0" r="25" fill="#4C8EDA" stroke="#2870c2" stroke-width="2px"/><text text-anchor="middle" pointer-events="none" font-family="sans-serif" dy="1.5625" font-size="25" fill="#FFFFFF"/><text text-anchor="middle" pointer-events="none" x="0" y="5" font-size="10px" fill="#FFFFFF" font-family="sans-serif"> 11/1/2015</text></g><g class="node" transform="translate(223.34800506560913,196.4060409946033)"><circle class="outline" cx="0" cy="0" r="25" fill="#4C8EDA" stroke="#2870c2" stroke-width="2px"/><text text-anchor="middle" pointer-events="none" font-family="sans-serif" dy="1.5625" font-size="25" fill="#FFFFFF"/><text text-anchor="middle" pointer-events="none" x="0" y="5" font-size="10px" fill="#FFFFFF" font-family="sans-serif"> 11/30/20…</text></g><g class="node" transform="translate(112.06786911107321,300.55660136328515)"><circle class="outline" cx="0" cy="0" r="25" fill="#4C8EDA" stroke="#2870c2" stroke-width="2px"/><text text-anchor="middle" pointer-events="none" font-family="sans-serif" dy="1.5625" font-size="25" fill="#FFFFFF"/><text text-anchor="middle" pointer-events="none" x="0" y="5" font-size="10px" fill="#FFFFFF" font-family="sans-serif"> 11/4/2015</text></g><g class="node" transform="translate(100.11831182834689,-35.32352400235213)"><circle class="outline" cx="0" cy="0" r="25" fill="#4C8EDA" stroke="#2870c2" stroke-width="2px"/><text text-anchor="middle" pointer-events="none" font-family="sans-serif" dy="1.5625" font-size="25" fill="#FFFFFF"/><text text-anchor="middle" pointer-events="none" x="0" y="5" font-size="10px" fill="#FFFFFF" font-family="sans-serif"> 11/29/20…</text></g><g class="node" transform="translate(221.36256487766937,6.727775747383823)"><circle class="outline" cx="0" cy="0" r="25" fill="#4C8EDA" stroke="#2870c2" stroke-width="2px"/><text text-anchor="middle" pointer-events="none" font-family="sans-serif" dy="1.5625" font-size="25" fill="#FFFFFF"/><text text-anchor="middle" pointer-events="none" x="0" y="5" font-size="10px" fill="#FFFFFF" font-family="sans-serif"> 11/2/2015</text></g><g class="node" transform="translate(-35.19312938027967,50.47530609576475)"><circle class="outline" cx="0" cy="0" r="25" fill="#4C8EDA" stroke="#2870c2" stroke-width="2px"/><text text-anchor="middle" pointer-events="none" font-family="sans-serif" dy="1.5625" font-size="25" fill="#FFFFFF"/><text text-anchor="middle" pointer-events="none" x="0" y="5" font-size="10px" fill="#FFFFFF" font-family="sans-serif"> 11/3/2015</text></g><g class="node" transform="translate(36.77163434934678,-32.687848868548166)"><circle class="outline" cx="0" cy="0" r="25" fill="#4C8EDA" stroke="#2870c2" stroke-width="2px"/><text text-anchor="middle" pointer-events="none" font-family="sans-serif" dy="1.5625" font-size="25" fill="#FFFFFF"/><text text-anchor="middle" pointer-events="none" x="0" y="5" font-size="10px" fill="#FFFFFF" font-family="sans-serif"> 11/29/20…</text></g><g class="node" transform="translate(138.71498926666317,247.11522327970093)"><circle class="outline" cx="0" cy="0" r="25" fill="#4C8EDA" stroke="#2870c2" stroke-width="2px"/><text text-anchor="middle" pointer-events="none" font-family="sans-serif" dy="1.5625" font-size="25" fill="#FFFFFF"/><text text-anchor="middle" pointer-events="none" x="0" y="5" font-size="10px" fill="#FFFFFF" font-family="sans-serif"> 11/2/2015</text></g><g class="node" transform="translate(168.06943371459693,-20.55565204425216)"><circle class="outline" cx="0" cy="0" r="25" fill="#4C8EDA" stroke="#2870c2" stroke-width="2px"/><text text-anchor="middle" pointer-events="none" font-family="sans-serif" dy="1.5625" font-size="25" fill="#FFFFFF"/><text text-anchor="middle" pointer-events="none" x="0" y="5" font-size="10px" fill="#FFFFFF" font-family="sans-serif"> 11/3/2015</text></g><g class="node" transform="translate(-33.304778020540255,-9.657303905121543)"><circle class="outline" cx="0" cy="0" r="25" fill="#4C8EDA" stroke="#2870c2" stroke-width="2px"/><text text-anchor="middle" pointer-events="none" font-family="sans-serif" dy="1.5625" font-size="25" fill="#FFFFFF"/><text text-anchor="middle" pointer-events="none" x="0" y="5" font-size="10px" fill="#FFFFFF" font-family="sans-serif"> 11/1/2015</text></g><g class="node" transform="translate(52.36633875070062,304.41707155790226)"><circle class="outline" cx="0" cy="0" r="25" fill="#4C8EDA" stroke="#2870c2" stroke-width="2px"/><text text-anchor="middle" pointer-events="none" font-family="sans-serif" dy="1.5625" font-size="25" fill="#FFFFFF"/><text text-anchor="middle" pointer-events="none" x="0" y="5" font-size="10px" fill="#FFFFFF" font-family="sans-serif"> 11/2/2015</text></g><g class="node" transform="translate(-70.97075666481099,213.90002143829892)"><circle class="outline" cx="0" cy="0" r="25" fill="#4C8EDA" stroke="#2870c2" stroke-width="2px"/><text text-anchor="middle" pointer-events="none" font-family="sans-serif" dy="1.5625" font-size="25" fill="#FFFFFF"/><text text-anchor="middle" pointer-events="none" x="0" y="5" font-size="10px" fill="#FFFFFF" font-family="sans-serif"> 11/2/2015</text></g><g class="node" transform="translate(-91.99734559206492,157.88447462063777)"><circle class="outline" cx="0" cy="0" r="25" fill="#4C8EDA" stroke="#2870c2" stroke-width="2px"/><text text-anchor="middle" pointer-events="none" font-family="sans-serif" dy="1.5625" font-size="25" fill="#FFFFFF"/><text text-anchor="middle" pointer-events="none" x="0" y="5" font-size="10px" fill="#FFFFFF" font-family="sans-serif"> 11/1/2015</text></g><g class="node" transform="translate(19.144609320268763,254.92927808585006)"><circle class="outline" cx="0" cy="0" r="25" fill="#4C8EDA" stroke="#2870c2" stroke-width="2px"/><text text-anchor="middle" pointer-events="none" font-family="sans-serif" dy="1.5625" font-size="25" fill="#FFFFFF"/><text text-anchor="middle" pointer-events="none" x="0" y="5" font-size="10px" fill="#FFFFFF" font-family="sans-serif"> 11/3/2015</text></g><g class="node" transform="translate(-85.76673392953154,19.199065884364465)"><circle class="outline" cx="0" cy="0" r="25" fill="#4C8EDA" stroke="#2870c2" stroke-width="2px"/><text text-anchor="middle" pointer-events="none" font-family="sans-serif" dy="1.5625" font-size="25" fill="#FFFFFF"/><text text-anchor="middle" pointer-events="none" x="0" y="5" font-size="10px" fill="#FFFFFF" font-family="sans-serif"> 11/4/2015</text></g><g class="node" transform="translate(-93.71022598598891,78.47505324809234)"><circle class="outline" cx="0" cy="0" r="25" fill="#4C8EDA" stroke="#2870c2" stroke-width="2px"/><text text-anchor="middle" pointer-events="none" font-family="sans-serif" dy="1.5625" font-size="25" fill="#FFFFFF"/><text text-anchor="middle" pointer-events="none" x="0" y="5" font-size="10px" fill="#FFFFFF" font-family="sans-serif"> 11/2/2015</text></g><g class="node" transform="translate(-7.452391139120617,308.301305973344)"><circle class="outline" cx="0" cy="0" r="25" fill="#4C8EDA" stroke="#2870c2" stroke-width="2px"/><text text-anchor="middle" pointer-events="none" font-family="sans-serif" dy="1.5625" font-size="25" fill="#FFFFFF"/><text text-anchor="middle" pointer-events="none" x="0" y="5" font-size="10px" fill="#FFFFFF" font-family="sans-serif"> 11/1/2015</text></g><g class="node" transform="translate(229.94197360503884,65.86416294390746)"><circle class="outline" cx="0" cy="0" r="25" fill="#4C8EDA" stroke="#2870c2" stroke-width="2px"/><text text-anchor="middle" pointer-events="none" font-family="sans-serif" dy="1.5625" font-size="25" fill="#FFFFFF"/><text text-anchor="middle" pointer-events="none" x="0" y="5" font-size="10px" fill="#FFFFFF" font-family="sans-serif"> 11/1/2015</text></g><g class="node" transform="translate(171.4323461813814,39.191333641214975)"><circle class="outline" cx="0" cy="0" r="25" fill="#4C8EDA" stroke="#2870c2" stroke-width="2px"/><text text-anchor="middle" pointer-events="none" font-family="sans-serif" dy="1.5625" font-size="25" fill="#FFFFFF"/><text text-anchor="middle" pointer-events="none" x="0" y="5" font-size="10px" fill="#FFFFFF" font-family="sans-serif"> 11/4/2015</text></g></g></svg>