<svg xmlns="http://www.w3.org/2000/svg" width="385.03033447265625" height="380.7086486816406" viewBox="-77.40765380859375 -66.94854736328125 385.03033447265625 380.7086486816406"><title>Neo4j Graph Visualization</title><desc>Created using Neo4j (http://www.neo4j.com/)</desc><g class="layer relationships"><g class="relationship" transform="translate(92.28478132886418 -35.94628133026652) rotate(375.11439979496004)"><path class="outline" fill="#A5ABB6" stroke="none" d="M 24.018736134675446,-6.953439040707552 L 24.277555179777966,-5.987513214418485 A 178.8739838287937 178.8739838287937 0 0 1 57.45953209716444,-11.601126373222655 L 57.38621782031903,-12.598435260584353 A 179.8739838287937 179.8739838287937 0 0 0 24.018736134675446,-6.953439040707552 Z M 79.44385216907999,-12.863648267396712 L 79.3945381820751,-11.864864942202672 A 178.8739838287937 178.8739838287937 0 0 1 112.7018949814155,-7.050695451615455 L 111.9953358964391,-4.135086722818446 L 119.62274186277125,-5.887992374803352 L 113.64397376138403,-10.938173756678134 L 112.93741467640763,-8.022565027881125 A 179.8739838287937 179.8739838287937 0 0 0 79.44385216907999,-12.863648267396712"/><text text-anchor="middle" pointer-events="none" font-size="8px" fill="#000000" x="68.41697693008469" y="-9.569531960342118" font-family="sans-serif">road</text></g><g class="relationship" transform="translate(231.22567460543297 1.5803127646688715) rotate(425.076571452033)"><path class="outline" fill="#A5ABB6" stroke="none" d="M 21.40063509461097,-12.933012701892217 L 21.90063509461097,-12.06698729810778 A 65.12450455116817 65.12450455116817 0 0 1 30.092993802434073,-16.06046998551929 L 29.718789134994132,-16.98781612740276 A 66.12450455116817 66.12450455116817 0 0 0 21.40063509461097,-12.933012701892217 Z M 75.54581873448367,-18.340952153690267 L 75.22698184478004,-17.393142553736716 A 65.12450455116817 65.12450455116817 0 0 1 83.64069398280978,-13.889987799708363 L 82.29660053532612,-11.207933959005025 L 90.12283518569816,-11.200778729030407 L 85.43281857945465,-17.466059587312813 L 84.08872513197099,-14.784005746609475 A 66.12450455116817 66.12450455116817 0 0 0 75.54581873448367,-18.340952153690267"/><text text-anchor="middle" pointer-events="none" font-size="8px" fill="#000000" x="52.52603486339545" y="-18.26342797897567" font-family="sans-serif">twowheeler</text></g><g class="relationship" transform="translate(278.6226669871477 103.57915930236634) rotate(470.9274602014874)"><path class="outline" fill="#A5ABB6" stroke="none" d="M 21.40063509461097,12.933012701892217 L 21.90063509461097,12.06698729810778 A 71.78410981873827 71.78410981873827 0 0 0 33.21877784363689,17.347001952124387 L 32.876447037802635,18.28658144284185 A 72.78410981873827 72.78410981873827 0 0 1 21.40063509461097,12.933012701892217 Z M 78.84332171688507,19.573631383950442 L 78.55410155928021,18.616368776075774 A 71.78410981873827 71.78410981873827 0 0 0 90.14995600419635,13.977934802601835 L 88.79768182756082,11.299996313538896 L 96.62385817478247,11.268951471962756 L 91.9529882397104,17.548519454685756 L 90.60071406307486,14.870580965622816 A 72.78410981873827 72.78410981873827 0 0 1 78.84332171688507,19.573631383950442"/><text text-anchor="middle" pointer-events="none" font-size="8px" fill="#000000" x="55.76956327189116" y="25.155916696751788" transform="rotate(180 55.76956327189116 22.155916696751788)" font-family="sans-serif">twowheeler</text></g><g class="relationship" transform="translate(236.13899600331337 214.6731024938855) rotate(523.5524594541039)"><path class="outline" fill="#A5ABB6" stroke="none" d="M 25 0.5 L 41.30543098826813 0.5 L 41.30543098826813 -0.5 L 25 -0.5 Z M 60.64136848826813 0.5 L 76.94679947653626 0.5 L 76.94679947653626 3.5 L 83.94679947653626 0 L 76.94679947653626 -3.5 L 76.94679947653626 -0.5 L 60.64136848826813 -0.5 Z"/><text text-anchor="middle" pointer-events="none" font-size="8px" fill="#000000" x="50.97339973826813" y="3" transform="rotate(180 50.97339973826813 0)" font-family="sans-serif">trek</text></g><g class="relationship" transform="translate(92.28478132886418 -35.94628133026652) rotate(375.11439979496004)"><path class="outline" fill="#A5ABB6" stroke="none" d="M 24.018736134675446,6.953439040707552 L 24.277555179777966,5.987513214418485 A 178.8739838287937 178.8739838287937 0 0 0 58.790455449741515,11.69397641764948 L 58.72458173705243,12.691804385776521 A 179.8739838287937 179.8739838287937 0 0 1 24.018736134675446,6.953439040707552 Z M 78.10363021669968,12.92481104620012 L 78.06176712350309,11.925687689738055 A 178.8739838287937 178.8739838287937 0 0 0 112.7018949814155,7.050695451615455 L 111.9953358964391,4.135086722818446 L 119.62274186277125,5.887992374803352 L 113.64397376138403,10.938173756678134 L 112.93741467640763,8.022565027881125 A 179.8739838287937 179.8739838287937 0 0 1 78.10363021669968,12.92481104620012"/><text text-anchor="middle" pointer-events="none" font-size="8px" fill="#000000" x="68.41697693008472" y="15.569531960342118" font-family="sans-serif">trek</text></g><g class="relationship" transform="translate(231.22567460543297 1.5803127646688715) rotate(425.076571452033)"><path class="outline" fill="#A5ABB6" stroke="none" d="M 25 0.5 L 41.73078255411299 0.5 L 41.73078255411299 -0.5 L 25 -0.5 Z M 63.74250130411299 0.5 L 80.47328385822598 0.5 L 80.47328385822598 3.5 L 87.47328385822598 0 L 80.47328385822598 -3.5 L 80.47328385822598 -0.5 L 63.74250130411299 -0.5 Z"/><text text-anchor="middle" pointer-events="none" font-size="8px" fill="#000000" x="52.73664192911299" y="3" font-family="sans-serif">road</text></g><g class="relationship" transform="translate(231.22567460543297 1.5803127646688715) rotate(425.076571452033)"><path class="outline" fill="#A5ABB6" stroke="none" d="M 21.40063509461097,12.933012701892217 L 21.90063509461097,12.06698729810778 A 65.12450455116817 65.12450455116817 0 0 0 43.006137877244285,19.77635676742213 L 42.830217160888594,20.76076110587097 A 66.12450455116817 66.12450455116817 0 0 1 21.40063509461097,12.933012701892217 Z M 62.23461944492111,21.333715452433992 L 62.11708764445655,20.340646333047246 A 65.12450455116817 65.12450455116817 0 0 0 83.64069398280978,13.889987799708363 L 82.29660053532612,11.207933959005025 L 90.12283518569816,11.200778729030407 L 85.43281857945465,17.466059587312813 L 84.08872513197099,14.784005746609475 A 66.12450455116817 66.12450455116817 0 0 1 62.23461944492111,21.333715452433992"/><text text-anchor="middle" pointer-events="none" font-size="8px" fill="#000000" x="52.526034863395466" y="24.26342797897567" font-family="sans-serif">trek</text></g><g class="relationship" transform="translate(278.6226669871477 103.57915930236634) rotate(470.9274602014874)"><path class="outline" fill="#A5ABB6" stroke="none" d="M 25 0.5 L 44.96414675015349 0.5 L 44.96414675015349 -0.5 L 25 -0.5 Z M 66.97586550015349 0.5 L 86.94001225030698 0.5 L 86.94001225030698 3.5 L 93.94001225030698 0 L 86.94001225030698 -3.5 L 86.94001225030698 -0.5 L 66.97586550015349 -0.5 Z"/><text text-anchor="middle" pointer-events="none" font-size="8px" fill="#000000" x="55.97000612515349" y="3" transform="rotate(180 55.97000612515349 0)" font-family="sans-serif">road</text></g><g class="relationship" transform="translate(278.6226669871477 103.57915930236634) rotate(470.9274602014874)"><path class="outline" fill="#A5ABB6" stroke="none" d="M 21.40063509461097,-12.933012701892217 L 21.90063509461097,-12.06698729810778 A 71.78410981873827 71.78410981873827 0 0 1 46.23275750412925,-20.747329090110014 L 46.07172001924519,-21.73427738078294 A 72.78410981873827 72.78410981873827 0 0 0 21.40063509461097,-12.933012701892217 Z M 65.47580564247806,-22.277582259198198 L 65.37024529891362,-21.283169360113234 A 71.78410981873827 71.78410981873827 0 0 1 90.14995600419635,-13.977934802601835 L 88.79768182756082,-11.299996313538896 L 96.62385817478247,-11.268951471962756 L 91.9529882397104,-17.548519454685756 L 90.60071406307486,-14.870580965622816 A 72.78410981873827 72.78410981873827 0 0 0 65.47580564247806,-22.277582259198198"/><text text-anchor="middle" pointer-events="none" font-size="8px" fill="#000000" x="55.769563271891165" y="-19.155916696751788" transform="rotate(180 55.769563271891165 -22.155916696751788)" font-family="sans-serif">trek</text></g><g class="relationship" transform="translate(92.28478132886418 -35.94628133026652) rotate(533.2664873087194)"><path class="outline" fill="#A5ABB6" stroke="none" d="M 21.40063509461097,12.933012701892217 L 21.90063509461097,12.06698729810778 A 95.05195113791943 95.05195113791943 0 0 0 56.269217123527206,23.886485423105952 L 56.130793941440686,24.876858596541624 A 96.05195113791943 96.05195113791943 0 0 1 21.40063509461097,12.933012701892217 Z M 78.20260777032696,25.399774737609178 L 78.11124057785676,24.40395746715234 A 95.05195113791943 95.05195113791943 0 0 0 113.0009936980761,14.225298723716543 L 111.62571262768714,11.55910256112276 L 119.45133158919309,11.460675586574615 L 114.83470179192804,17.780226940508253 L 113.45942072153908,15.11403077791447 A 96.05195113791943 96.05195113791943 0 0 1 78.20260777032696,25.399774737609178"/><text text-anchor="middle" pointer-events="none" font-size="8px" fill="#000000" x="67.16346902907787" y="28.274729131687025" transform="rotate(180 67.16346902907787 25.274729131687025)" font-family="sans-serif">road</text></g><g class="relationship" transform="translate(-48.40764822509348 -19.335286034006117) rotate(440.68846300976486)"><path class="outline" fill="#A5ABB6" stroke="none" d="M 24.018736134675446,-6.953439040707552 L 24.277555179777966,-5.987513214418485 A 102.31952013579283 102.31952013579283 0 0 1 39.50768204051475,-8.853384915339007 L 39.39771168860903,-9.847319783276404 A 103.31952013579283 103.31952013579283 0 0 0 24.018736134675446,-6.953439040707552 Z M 58.79652443657972,-10.160922832155578 L 58.718739244107425,-9.16395269025962 A 102.31952013579283 102.31952013579283 0 0 1 74.0335433204665,-6.791873243232527 L 73.3511589343912,-3.8705119938077623 L 80.96378363347017,-5.6865365506275936 L 74.94338916856692,-10.68702157579888 L 74.26100478249161,-7.765660326374115 A 103.31952013579283 103.31952013579283 0 0 0 58.79652443657972,-10.160922832155578"/><text text-anchor="middle" pointer-events="none" font-size="8px" fill="#000000" x="49.0978227090315" y="-6.9605333887335945" font-family="sans-serif">trek</text></g><g class="relationship" transform="translate(-31.368472895873627 84.58554153021716) rotate(391.10649466058294)"><path class="outline" fill="#A5ABB6" stroke="none" d="M 24.018736134675446,-6.953439040707552 L 24.277555179777966,-5.987513214418485 A 128.5357893376382 128.5357893376382 0 0 1 46.07027623106814,-9.854044393566397 L 45.981003124599454,-10.850051578511085 A 129.5357893376382 129.5357893376382 0 0 0 24.018736134675446,-6.953439040707552 Z M 65.37167979659428,-11.130603949223229 L 65.31125931821553,-10.132430935266001 A 128.5357893376382 128.5357893376382 0 0 1 87.20672006246613,-6.897998531327181 L 86.51442288723567,-3.978970504540197 L 94.13316832084084,-5.769143126920581 L 88.12978296277342,-10.790035900376493 L 87.43748578754295,-7.871007873589509 A 129.5357893376382 129.5357893376382 0 0 0 65.37167979659428,-11.130603949223229"/><text text-anchor="middle" pointer-events="none" font-size="8px" fill="#000000" x="55.67831737555666" y="-7.853760291564527" font-family="sans-serif">trek</text></g><g class="relationship" transform="translate(70.05662105076681 145.78475143739274) rotate(418.3016651798662)"><path class="outline" fill="#A5ABB6" stroke="none" d="M 24.018736134675446,6.953439040707552 L 24.277555179777966,5.987513214418485 A 126.07788268691846 126.07788268691846 0 0 0 45.452744609069406,9.761947139936495 L 45.36187880824744,10.757810286277888 A 127.07788268691846 127.07788268691846 0 0 1 24.018736134675446,6.953439040707552 Z M 64.75325644823533,11.041171493619771 L 64.69152781460515,10.04307852410733 A 126.07788268691846 126.07788268691846 0 0 0 85.96796211524992,6.888979243041439 L 85.2765073784491,3.9697515460373665 L 92.8947358643929,5.76212280667353 L 86.88990176431768,10.78128283904687 L 86.19844702751686,7.862055142042798 A 127.07788268691846 127.07788268691846 0 0 1 64.75325644823533,11.041171493619771"/><text text-anchor="middle" pointer-events="none" font-size="8px" fill="#000000" x="55.059459833217666" y="13.770000824560412" font-family="sans-serif">trek</text></g><g class="relationship" transform="translate(92.28478132886418 -35.94628133026652) rotate(533.2664873087194)"><path class="outline" fill="#A5ABB6" stroke="none" d="M 25 0.5 L 36.47153522207064 0.5 L 36.47153522207064 -0.5 L 25 -0.5 Z M 98.19809772207064 0.5 L 109.66963294414128 0.5 L 109.66963294414128 3.5 L 116.66963294414128 0 L 109.66963294414128 -3.5 L 109.66963294414128 -0.5 L 98.19809772207064 -0.5 Z"/><text text-anchor="middle" pointer-events="none" font-size="8px" fill="#000000" x="67.33481647207064" y="3" transform="rotate(180 67.33481647207064 0)" font-family="sans-serif">PublicTransport</text></g><g class="relationship" transform="translate(92.28478132886418 -35.94628133026652) rotate(533.2664873087194)"><path class="outline" fill="#A5ABB6" stroke="none" d="M 21.40063509461097,-12.933012701892217 L 21.90063509461097,-12.06698729810778 A 95.05195113791943 95.05195113791943 0 0 1 57.58854130002397,-24.06147788238212 L 57.463998150495456,-25.053692074936095 A 96.05195113791943 96.05195113791943 0 0 0 21.40063509461097,-12.933012701892217 Z M 76.86252512404576,-25.513273826850295 L 76.78510957576817,-24.51627491366891 A 95.05195113791943 95.05195113791943 0 0 1 113.0009936980761,-14.225298723716543 L 111.62571262768714,-11.55910256112276 L 119.45133158919309,-11.460675586574615 L 114.83470179192804,-17.780226940508253 L 113.45942072153908,-15.11403077791447 A 96.05195113791943 96.05195113791943 0 0 0 76.86252512404576,-25.513273826850295"/><text text-anchor="middle" pointer-events="none" font-size="8px" fill="#000000" x="67.16346902907785" y="-22.27472913168701" transform="rotate(180 67.16346902907785 -25.27472913168701)" font-family="sans-serif">trek</text></g><g class="relationship" transform="translate(-48.40764822509348 -19.335286034006117) rotate(399.4335460729268)"><path class="outline" fill="#A5ABB6" stroke="none" d="M 25 0.5 L 171.0375677052517 0.5 L 171.0375677052517 -0.5 L 25 -0.5 Z M 190.3735052052517 0.5 L 336.4110729105034 0.5 L 336.4110729105034 3.5 L 343.4110729105034 0 L 336.4110729105034 -3.5 L 336.4110729105034 -0.5 L 190.3735052052517 -0.5 Z"/><text text-anchor="middle" pointer-events="none" font-size="8px" fill="#000000" x="180.7055364552517" y="3" font-family="sans-serif">trek</text></g><g class="relationship" transform="translate(-48.40764822509348 -19.335286034006117) rotate(440.68846300976486)"><path class="outline" fill="#A5ABB6" stroke="none" d="M 24.018736134675446,6.953439040707552 L 24.277555179777966,5.987513214418485 A 102.31952013579283 102.31952013579283 0 0 0 26.22772011199384,6.489543047400659 L 25.98796062590438,7.460375364966424 A 103.31952013579283 103.31952013579283 0 0 1 24.018736134675446,6.953439040707552 Z M 72.27642322781051,8.208679046664955 L 72.06816996141072,7.230604112401835 A 102.31952013579283 102.31952013579283 0 0 0 74.0335433204665,6.791873243232527 L 73.3511589343912,3.8705119938077623 L 80.96378363347017,5.6865365506275936 L 74.94338916856692,10.68702157579888 L 74.26100478249161,7.765660326374115 A 103.31952013579283 103.31952013579283 0 0 1 72.27642322781051,8.208679046664955"/><text text-anchor="middle" pointer-events="none" font-size="8px" fill="#000000" x="49.09782270903154" y="12.960533388733595" font-family="sans-serif">twowheeler</text></g><g class="relationship" transform="translate(-31.368472895873627 84.58554153021716) rotate(391.10649466058294)"><path class="outline" fill="#A5ABB6" stroke="none" d="M 24.018736134675446,6.953439040707552 L 24.277555179777966,5.987513214418485 A 128.5357893376382 128.5357893376382 0 0 0 32.70045006253424,7.943306917193809 L 32.5071605864814,8.924448690051946 A 129.5357893376382 129.5357893376382 0 0 1 24.018736134675446,6.953439040707552 Z M 78.89559160449267,9.595615793493849 L 78.73076822806502,8.60929269502003 A 128.5357893376382 128.5357893376382 0 0 0 87.20672006246613,6.897998531327181 L 86.51442288723567,3.978970504540197 L 94.13316832084084,5.769143126920581 L 88.12978296277342,10.790035900376493 L 87.43748578754295,7.871007873589509 A 129.5357893376382 129.5357893376382 0 0 1 78.89559160449267,9.595615793493849"/><text text-anchor="middle" pointer-events="none" font-size="8px" fill="#000000" x="55.67831737555668" y="13.853760291564527" font-family="sans-serif">twowheeler</text></g><g class="relationship" transform="translate(70.05662105076681 145.78475143739274) rotate(418.3016651798662)"><path class="outline" fill="#A5ABB6" stroke="none" d="M 24.018736134675446,-6.953439040707552 L 24.277555179777966,-5.987513214418485 A 126.07788268691846 126.07788268691846 0 0 1 32.089220971027515,-7.816371730519947 L 31.8923609755598,-8.796803340671545 A 127.07788268691846 127.07788268691846 0 0 0 24.018736134675446,-6.953439040707552 Z M 78.27432229997822,-9.474570996161361 L 78.1061938305477,-8.488805903572384 A 126.07788268691846 126.07788268691846 0 0 1 85.96796211524992,-6.888979243041439 L 85.2765073784491,-3.9697515460373665 L 92.8947358643929,-5.76212280667353 L 86.88990176431768,-10.78128283904687 L 86.19844702751686,-7.862055142042798 A 127.07788268691846 127.07788268691846 0 0 0 78.27432229997822,-9.474570996161361"/><text text-anchor="middle" pointer-events="none" font-size="8px" fill="#000000" x="55.05945983321763" y="-7.770000824560412" font-family="sans-serif">twowheeler</text></g><g class="relationship" transform="translate(-48.40764822509348 -19.335286034006117) rotate(364.2775596929547)"><path class="outline" fill="#A5ABB6" stroke="none" d="M 25 0.5 L 127.03925067035348 0.5 L 127.03925067035348 -0.5 L 25 -0.5 Z M 146.37518817035348 0.5 L 248.41443884070696 0.5 L 248.41443884070696 3.5 L 255.41443884070696 0 L 248.41443884070696 -3.5 L 248.41443884070696 -0.5 L 146.37518817035348 -0.5 Z"/><text text-anchor="middle" pointer-events="none" font-size="8px" fill="#000000" x="136.70721942035348" y="3" font-family="sans-serif">trek</text></g><g class="relationship" transform="translate(-31.368472895873627 84.58554153021716) rotate(452.2916184374555)"><path class="outline" fill="#A5ABB6" stroke="none" d="M 24.018736134675446,-6.953439040707552 L 24.277555179777966,-5.987513214418485 A 105.07153952321633 105.07153952321633 0 0 1 26.90145884213271,-6.654476046401086 L 26.66761234120591,-7.626749574789201 A 106.07153952321633 106.07153952321633 0 0 0 24.018736134675446,-6.953439040707552 Z M 72.97071814423538,-8.36621284362026 L 72.76803750497774,-7.386967951639662 A 105.07153952321633 105.07153952321633 0 0 1 75.41190053142427,-6.804131657339245 L 74.72837110185388,-3.8830381088695676 L 82.34170704944859,-5.696078579753275 L 76.32327310418479,-10.698923055298817 L 75.63974367461441,-7.777829506829138 A 106.07153952321633 106.07153952321633 0 0 0 72.97071814423538,-8.36621284362026"/><text text-anchor="middle" pointer-events="none" font-size="8px" fill="#000000" x="49.786302092558344" y="-7.054279051403398" transform="rotate(180 49.786302092558344 -10.054279051403398)" font-family="sans-serif">twowheeler</text></g><g class="relationship" transform="translate(-35.63430534549376 191.18437471337631) rotate(336.75401918332545)"><path class="outline" fill="#A5ABB6" stroke="none" d="M 21.40063509461097,12.933012701892217 L 21.90063509461097,12.06698729810778 A 67.75915964804818 67.75915964804818 0 0 0 31.324725866684403,16.57786462100662 L 30.963808033892846,17.510462239475075 A 68.75915964804818 68.75915964804818 0 0 1 21.40063509461097,12.933012701892217 Z M 76.85139352282721,18.836788377797404 L 76.54494448080797,17.884901312728502 A 67.75915964804818 67.75915964804818 0 0 0 86.21384748563777,13.92588429006793 L 84.86641492928318,11.245506423781958 L 92.69263459969747,11.228604636288225 L 88.01042422744389,17.499721445115895 L 86.6629916710893,14.819343578829923 A 68.75915964804818 68.75915964804818 0 0 1 76.85139352282721,18.836788377797404"/><text text-anchor="middle" pointer-events="none" font-size="8px" fill="#000000" x="53.80808862458206" y="24.6164983183247" font-family="sans-serif">twowheeler</text></g><g class="relationship" transform="translate(-31.368472895873627 84.58554153021716) rotate(452.2916184374555)"><path class="outline" fill="#A5ABB6" stroke="none" d="M 24.018736134675446,6.953439040707552 L 24.277555179777966,5.987513214418485 A 105.07153952321633 105.07153952321633 0 0 0 40.193805176672456,8.960687060778454 L 40.08646625710267,9.954909549130818 A 106.07153952321633 106.07153952321633 0 0 1 24.018736134675446,6.953439040707552 Z M 59.484364508229675,10.264695102399088 L 59.40882781066107,9.26755207989909 A 105.07153952321633 105.07153952321633 0 0 0 75.41190053142427,6.804131657339245 L 74.72837110185388,3.8830381088695676 L 82.34170704944859,5.696078579753275 L 76.32327310418479,10.698923055298817 L 75.63974367461441,7.777829506829138 A 106.07153952321633 106.07153952321633 0 0 1 59.484364508229675,10.264695102399088"/><text text-anchor="middle" pointer-events="none" font-size="8px" fill="#000000" x="49.78630209255838" y="13.054279051403398" transform="rotate(180 49.78630209255838 10.054279051403398)" font-family="sans-serif">trek</text></g><g class="relationship" transform="translate(-35.63430534549376 191.18437471337631) rotate(336.75401918332545)"><path class="outline" fill="#A5ABB6" stroke="none" d="M 25 0.5 L 43.00869903437362 0.5 L 43.00869903437362 -0.5 L 25 -0.5 Z M 65.02041778437362 0.5 L 83.02911681874724 0.5 L 83.02911681874724 3.5 L 90.02911681874724 0 L 83.02911681874724 -3.5 L 83.02911681874724 -0.5 L 65.02041778437362 -0.5 Z"/><text text-anchor="middle" pointer-events="none" font-size="8px" fill="#000000" x="54.01455840937362" y="3" font-family="sans-serif">road</text></g><g class="relationship" transform="translate(-35.63430534549376 191.18437471337631) rotate(336.75401918332545)"><path class="outline" fill="#A5ABB6" stroke="none" d="M 21.40063509461097,-12.933012701892217 L 21.90063509461097,-12.06698729810778 A 67.75915964804818 67.75915964804818 0 0 1 44.281035974936806,-20.16212141008218 L 44.1113293403884,-21.147616036242184 A 68.75915964804818 68.75915964804818 0 0 0 21.40063509461097,-12.933012701892217 Z M 63.515741844368335,-21.708477524781898 L 63.403240077835285,-20.714826000087783 A 67.75915964804818 67.75915964804818 0 0 1 86.21384748563777,-13.92588429006793 L 84.86641492928318,-11.245506423781958 L 92.69263459969747,-11.228604636288225 L 88.01042422744389,-17.499721445115895 L 86.6629916710893,-14.819343578829923 A 68.75915964804818 68.75915964804818 0 0 0 63.515741844368335,-21.708477524781898"/><text text-anchor="middle" pointer-events="none" font-size="8px" fill="#000000" x="53.808088624582076" y="-18.6164983183247" font-family="sans-serif">trek</text></g><g class="relationship" transform="translate(-35.63430534549376 191.18437471337631) rotate(416.76533132854104)"><path class="outline" fill="#A5ABB6" stroke="none" d="M 25 0.5 L 42.76941689943804 0.5 L 42.76941689943804 -0.5 L 25 -0.5 Z M 62.10535439943804 0.5 L 79.87477129887608 0.5 L 79.87477129887608 3.5 L 86.87477129887608 0 L 79.87477129887608 -3.5 L 79.87477129887608 -0.5 L 62.10535439943804 -0.5 Z"/><text text-anchor="middle" pointer-events="none" font-size="8px" fill="#000000" x="52.43738564943804" y="3" font-family="sans-serif">trek</text></g><g class="relationship" transform="translate(25.680837310336308 284.7601073275057) rotate(339.68060816538514)"><path class="outline" fill="#A5ABB6" stroke="none" d="M 25 0.5 L 43.33275392060461 0.5 L 43.33275392060461 -0.5 L 25 -0.5 Z M 62.66869142060461 0.5 L 81.00144534120922 0.5 L 81.00144534120922 3.5 L 88.00144534120922 0 L 81.00144534120922 -3.5 L 81.00144534120922 -0.5 L 62.66869142060461 -0.5 Z"/><text text-anchor="middle" pointer-events="none" font-size="8px" fill="#000000" x="53.00072267060461" y="3" font-family="sans-serif">trek</text></g></g><g class="layer nodes"><g class="node" transform="translate(92.28478132886418,-35.94628133026652)"><circle class="outline" cx="0" cy="0" r="25" fill="#F16667" stroke="#eb2728" stroke-width="2px"/><text text-anchor="middle" pointer-events="none" font-family="sans-serif" dy="1.5625" font-size="25" fill="#FFFFFF"/><text text-anchor="middle" pointer-events="none" x="0" y="5" font-size="10px" fill="#FFFFFF" font-family="sans-serif"> Darjeeling</text></g><g class="node" transform="translate(131.65036769606763,245.52000948066208)"><circle class="outline" cx="0" cy="0" r="25" fill="#D9C8AE" stroke="#c0a378" stroke-width="2px"/><text text-anchor="middle" pointer-events="none" font-family="sans-serif" dy="1.5625" font-size="25" fill="#2A2C34"/><text text-anchor="middle" pointer-events="none" x="0" y="5" font-size="10px" fill="#2A2C34" font-family="sans-serif"> Sandak…</text></g><g class="node" transform="translate(70.05662105076681,145.78475143739274)"><circle class="outline" cx="0" cy="0" r="25" fill="#8DCC93" stroke="#5db665" stroke-width="2px"/><text text-anchor="middle" pointer-events="none" font-family="sans-serif" dy="1.5625" font-size="25" fill="#2A2C34"/><text text-anchor="middle" pointer-events="none" x="0" y="5" font-size="10px" fill="#2A2C34" font-family="sans-serif"> Gurdum</text></g><g class="node" transform="translate(231.22567460543297,1.5803127646688715)"><circle class="outline" cx="0" cy="0" r="25" fill="#8DCC93" stroke="#5db665" stroke-width="2px"/><text text-anchor="middle" pointer-events="none" font-family="sans-serif" dy="1.5625" font-size="25" fill="#2A2C34"/><text text-anchor="middle" pointer-events="none" x="0" y="5" font-size="10px" fill="#2A2C34" font-family="sans-serif"> Tumbling</text></g><g class="node" transform="translate(278.6226669871477,103.57915930236634)"><circle class="outline" cx="0" cy="0" r="25" fill="#8DCC93" stroke="#5db665" stroke-width="2px"/><text text-anchor="middle" pointer-events="none" font-family="sans-serif" dy="1.5625" font-size="25" fill="#2A2C34"/><text text-anchor="middle" pointer-events="none" x="0" y="5" font-size="10px" fill="#2A2C34" font-family="sans-serif"> Gairibus</text></g><g class="node" transform="translate(236.13899600331337,214.6731024938855)"><circle class="outline" cx="0" cy="0" r="25" fill="#8DCC93" stroke="#5db665" stroke-width="2px"/><text text-anchor="middle" pointer-events="none" font-family="sans-serif" dy="1.5625" font-size="25" fill="#2A2C34"/><text text-anchor="middle" pointer-events="none" x="0" y="5" font-size="10px" fill="#2A2C34" font-family="sans-serif"> BhikeBh…</text></g><g class="node" transform="translate(-48.40764822509348,-19.335286034006117)"><circle class="outline" cx="0" cy="0" r="25" fill="#F16667" stroke="#eb2728" stroke-width="2px"/><text text-anchor="middle" pointer-events="none" font-family="sans-serif" dy="1.5625" font-size="25" fill="#FFFFFF"/><text text-anchor="middle" pointer-events="none" x="0" y="5" font-size="10px" fill="#FFFFFF" font-family="sans-serif"> Rimbik</text></g><g class="node" transform="translate(-31.368472895873627,84.58554153021716)"><circle class="outline" cx="0" cy="0" r="25" fill="#8DCC93" stroke="#5db665" stroke-width="2px"/><text text-anchor="middle" pointer-events="none" font-family="sans-serif" dy="1.5625" font-size="25" fill="#2A2C34"/><text text-anchor="middle" pointer-events="none" x="0" y="5" font-size="10px" fill="#2A2C34" font-family="sans-serif"> Sirikhola</text></g><g class="node" transform="translate(-35.63430534549376,191.18437471337631)"><circle class="outline" cx="0" cy="0" r="25" fill="#8DCC93" stroke="#5db665" stroke-width="2px"/><text text-anchor="middle" pointer-events="none" font-family="sans-serif" dy="1.5625" font-size="25" fill="#2A2C34"/><text text-anchor="middle" pointer-events="none" x="0" y="5" font-size="10px" fill="#2A2C34" font-family="sans-serif"> Rammam</text></g><g class="node" transform="translate(25.680837310336308,284.7601073275057)"><circle class="outline" cx="0" cy="0" r="25" fill="#D9C8AE" stroke="#c0a378" stroke-width="2px"/><text text-anchor="middle" pointer-events="none" font-family="sans-serif" dy="1.5625" font-size="25" fill="#2A2C34"/><text text-anchor="middle" pointer-events="none" x="0" y="5" font-size="10px" fill="#2A2C34" font-family="sans-serif"> Sabargr…</text></g></g></svg>