<svg xmlns="http://www.w3.org/2000/svg" width="168.26856994628906" height="260.7681579589844" viewBox="26.646564483642578 -37.1004753112793 168.26856994628906 260.7681579589844"><title>Neo4j Graph Visualization</title><desc>Created using Neo4j (http://www.neo4j.com/)</desc><g class="layer relationships"><g class="relationship" transform="translate(158.0762623143354 194.66770062396) rotate(274.257137107519)"><path class="outline" fill="#A5ABB6" stroke="none" d="M 25 0.5 L 26.51799471603089 0.5 L 26.51799471603089 -0.5 L 25 -0.5 Z M 72.0804947160309 0.5 L 73.59848943206178 0.5 L 73.59848943206178 3.5 L 80.59848943206178 0 L 73.59848943206178 -3.5 L 73.59848943206178 -0.5 L 72.0804947160309 -0.5 Z"/><text text-anchor="middle" pointer-events="none" font-size="8px" fill="#000000" x="49.29924471603089" y="3" font-family="sans-serif">ACTED_IN</text></g><g class="relationship" transform="translate(125.33303230511558 -8.100476267946227) rotate(427.3934978776613)"><path class="outline" fill="#A5ABB6" stroke="none" d="M 25 0.5 L 25.840955654208706 0.5 L 25.840955654208706 -0.5 L 25 -0.5 Z M 72.7315806542087 0.5 L 73.57253630841741 0.5 L 73.57253630841741 3.5 L 80.57253630841741 0 L 73.57253630841741 -3.5 L 73.57253630841741 -0.5 L 72.7315806542087 -0.5 Z"/><text text-anchor="middle" pointer-events="none" font-size="8px" fill="#000000" x="49.286268154208706" y="3" font-family="sans-serif">DIRECTED</text></g><g class="relationship" transform="translate(55.64656283108221 107.16756273763862) rotate(350.8266396621044)"><path class="outline" fill="#A5ABB6" stroke="none" d="M 25 0.5 L 34.46183756174766 0.5 L 34.46183756174766 -0.5 L 25 -0.5 Z M 70.23527506174766 0.5 L 79.69711262349531 0.5 L 79.69711262349531 3.5 L 86.69711262349531 0 L 79.69711262349531 -3.5 L 79.69711262349531 -0.5 L 70.23527506174766 -0.5 Z"/><text text-anchor="middle" pointer-events="none" font-size="8px" fill="#000000" x="52.34855631174766" y="3" font-family="sans-serif">WROTE</text></g></g><g class="layer nodes"><g class="node" transform="translate(158.0762623143354,194.66770062396)"><circle class="outline" cx="0" cy="0" r="25" fill="#57C7E3" stroke="#23b3d7" stroke-width="2px"/><text text-anchor="middle" pointer-events="none" font-family="sans-serif" dy="1.5625" font-size="25" fill="#2A2C34"/><text text-anchor="middle" pointer-events="none" font-family="sans-serif" dy="1.5625" font-size="25" fill="#2A2C34"/><text text-anchor="middle" pointer-events="none" x="0" y="0" font-size="10px" fill="#2A2C34" font-family="sans-serif"> Chris</text><text text-anchor="middle" pointer-events="none" x="0" y="10" font-size="10px" fill="#2A2C34" font-family="sans-serif"> Evans</text></g><g class="node" transform="translate(165.91512468539366,89.36056313052669)"><circle class="outline" cx="0" cy="0" r="25" fill="#F79767" stroke="#f36924" stroke-width="2px"/><text text-anchor="middle" pointer-events="none" font-family="sans-serif" dy="1.5625" font-size="25" fill="#FFFFFF"/><text text-anchor="middle" pointer-events="none" font-family="sans-serif" dy="1.5625" font-size="25" fill="#FFFFFF"/><text text-anchor="middle" pointer-events="none" font-family="sans-serif" dy="1.5625" font-size="25" fill="#FFFFFF"/><text text-anchor="middle" pointer-events="none" x="0" y="-5" font-size="10px" fill="#FFFFFF" font-family="sans-serif"> Captain</text><text text-anchor="middle" pointer-events="none" x="0" y="5" font-size="10px" fill="#FFFFFF" font-family="sans-serif"> America:</text><text text-anchor="middle" pointer-events="none" x="0" y="15" font-size="10px" fill="#FFFFFF" font-family="sans-serif"> The Fi…</text></g><g class="node" transform="translate(125.33303230511558,-8.100476267946227)"><circle class="outline" cx="0" cy="0" r="25" fill="#57C7E3" stroke="#23b3d7" stroke-width="2px"/><text text-anchor="middle" pointer-events="none" font-family="sans-serif" dy="1.5625" font-size="25" fill="#2A2C34"/><text text-anchor="middle" pointer-events="none" font-family="sans-serif" dy="1.5625" font-size="25" fill="#2A2C34"/><text text-anchor="middle" pointer-events="none" x="0" y="0" font-size="10px" fill="#2A2C34" font-family="sans-serif"> Joe</text><text text-anchor="middle" pointer-events="none" x="0" y="10" font-size="10px" fill="#2A2C34" font-family="sans-serif"> Johnston</text></g><g class="node" transform="translate(55.64656283108221,107.16756273763862)"><circle class="outline" cx="0" cy="0" r="25" fill="#57C7E3" stroke="#23b3d7" stroke-width="2px"/><text text-anchor="middle" pointer-events="none" font-family="sans-serif" dy="1.5625" font-size="25" fill="#2A2C34"/><text text-anchor="middle" pointer-events="none" x="0" y="5" font-size="10px" fill="#2A2C34" font-family="sans-serif"> Christop…</text></g></g></svg>